<?xml version="1.0" encoding="iso-8859-1"?>
<!-- Generator: Adobe Illustrator 19.0.0, SVG Export Plug-In . SVG Version: 6.00 Build 0)  -->
<svg version="1.1" id="Layer_1" xmlns="http://www.w3.org/2000/svg" xmlns:xlink="http://www.w3.org/1999/xlink" x="0px" y="0px"
	 viewBox="0 0 512.001 512.001" style="enable-background:new 0 0 512.001 512.001;" xml:space="preserve">
<path style="fill:#F6E27D;" d="M504.864,323.637c-6.953-6.953-17.429-8.997-26.487-5.158c-26.92,11.402-55.471,17.185-84.859,17.185
	c-50.762,0-98.865-17.292-137.581-49.088c-5.543-4.552-10.896-9.403-16.035-14.542c-62.92-62.921-81.149-156.528-46.443-238.475
	c3.835-9.055,1.793-19.534-5.162-26.487c-6.951-6.953-17.429-8.995-26.487-5.157c-31.493,13.343-59.786,32.433-84.093,56.741
	c-103.537,103.537-103.534,272.01,0.006,375.554c47.9,47.898,110.871,75.229,178.214,77.603c3.185,0.111,6.377,0.188,9.581,0.188
	c70.925,0,137.61-27.624,187.766-77.78c24.308-24.311,43.4-52.605,56.738-84.094C513.859,341.07,511.818,330.592,504.864,323.637z"
	/>
<path style="fill:#F2D23D;" d="M504.864,323.637c-6.953-6.953-17.429-8.997-26.487-5.158c-26.92,11.402-55.471,17.185-84.859,17.185
	c-50.762,0-98.865-17.292-137.581-49.088v225.235c3.185,0.111,6.377,0.188,9.581,0.188c70.925,0,137.61-27.624,187.766-77.78
	c24.308-24.311,43.4-52.605,56.738-84.094C513.859,341.07,511.818,330.592,504.864,323.637z"/>
<g>
</g>
<g>
</g>
<g>
</g>
<g>
</g>
<g>
</g>
<g>
</g>
<g>
</g>
<g>
</g>
<g>
</g>
<g>
</g>
<g>
</g>
<g>
</g>
<g>
</g>
<g>
</g>
<g>
</g>
</svg>
